<?xml version="1.0" standalone="no"?>
<svg xmlns="http://www.w3.org/2000/svg" xmlns:xlink="http://www.w3.org/1999/xlink" width="619pt" height="921pt" viewBox="0.00 0.00 619.32 920.85">
<g id="graph0" class="graph" transform="translate(4,916.8499755859375) scale(1)" data-name="G">

<polygon fill="white" stroke="none" points="-4,4 -4,-916.85 615.32,-916.85 615.32,4 -4,4" style=""/>
<!-- bb0 -->
<g id="node1" class="node" pointer-events="visible" data-name="bb0">

<polygon fill="none" stroke="black" points="60.54,-788.35 60.54,-912.35 257.46,-912.35 257.46,-788.35 60.54,-788.35" style=""/>
<text text-anchor="middle" x="81.37" y="-846.15" font-family="Times,serif" font-size="14.00" style="">BB0</text>
<polyline fill="none" stroke="black" points="102.21,-788.35 102.21,-912.35" style=""/>
<text text-anchor="middle" x="170.09" y="-895.75" font-family="Times,serif" font-size="14.00" style="">-1: const # (100) (13)</text>
<polyline fill="none" stroke="black" points="102.21,-887.55 237.96,-887.55" style=""/>
<text text-anchor="middle" x="170.09" y="-870.95" font-family="Times,serif" font-size="14.00" style="">-2: const # (0)</text>
<polyline fill="none" stroke="black" points="102.21,-862.75 237.96,-862.75" style=""/>
<text text-anchor="middle" x="170.09" y="-846.15" font-family="Times,serif" font-size="14.00" style="">-3: const # (7)</text>
<polyline fill="none" stroke="black" points="102.21,-837.95 237.96,-837.95" style=""/>
<text text-anchor="middle" x="170.09" y="-821.35" font-family="Times,serif" font-size="14.00" style="">-4: const # (11)</text>
<polyline fill="none" stroke="black" points="102.21,-813.15 237.96,-813.15" style=""/>
<text text-anchor="middle" x="170.09" y="-796.55" font-family="Times,serif" font-size="14.00" style="">-5: const # (1)</text>
<polyline fill="none" stroke="black" points="237.96,-788.35 237.96,-912.35" style=""/>
<text text-anchor="middle" x="247.71" y="-846.25" font-family="Times,serif" font-size="14.00" style=""> </text>
</g>
<!-- bb1 -->
<g id="node2" class="node" pointer-events="visible" data-name="bb1">

<polygon fill="none" stroke="black" points="40.34,-698.55 40.34,-734.55 277.66,-734.55 277.66,-698.55 40.34,-698.55" style=""/>
<text text-anchor="middle" x="61.18" y="-712.35" font-family="Times,serif" font-size="14.00" style="">BB1</text>
<polyline fill="none" stroke="black" points="82.02,-698.55 82.02,-734.55" style=""/>
<text text-anchor="middle" x="109.25" y="-712.45" font-family="Times,serif" font-size="14.00" style="">1: read</text>
<polyline fill="none" stroke="black" points="136.49,-698.55 136.49,-734.55" style=""/>
<text text-anchor="middle" x="207.08" y="-712.45" font-family="Times,serif" font-size="14.00" style="">'a': 1, 'b': 1, 'c': 1, 'd': 1</text>
</g>
<!-- bb0&#45;&gt;bb1 -->
<g id="edge1" class="edge" data-name="bb0-&gt;bb1">

<path fill="none" stroke="black" d="M159,-787.85C159,-768.6 159,-761.2 159,-746.2" style=""/>
<polygon fill="black" stroke="black" points="162.5,-746.57 159,-736.57 155.5,-746.57 162.5,-746.57" style=""/>
<text text-anchor="middle" x="192.43" y="-757.25" font-family="Times,serif" font-size="14.00" style="">fall-through</text>
</g>
<!-- bb2 -->
<g id="node3" class="node" pointer-events="visible" data-name="bb2">

<polygon fill="none" stroke="black" points="9.62,-545.55 9.62,-644.75 308.38,-644.75 308.38,-545.55 9.62,-545.55" style=""/>
<text text-anchor="middle" x="30.45" y="-590.95" font-family="Times,serif" font-size="14.00" style="">BB2</text>
<polyline fill="none" stroke="black" points="51.29,-545.55 51.29,-644.75" style=""/>
<text text-anchor="middle" x="102.25" y="-628.15" font-family="Times,serif" font-size="14.00" style="">14: phi (13) (1)</text>
<polyline fill="none" stroke="black" points="51.29,-619.95 153.22,-619.95" style=""/>
<text text-anchor="middle" x="102.25" y="-603.35" font-family="Times,serif" font-size="14.00" style="">16: phi (15) (6)</text>
<polyline fill="none" stroke="black" points="51.29,-595.15 153.22,-595.15" style=""/>
<text text-anchor="middle" x="102.25" y="-578.55" font-family="Times,serif" font-size="14.00" style="">2: cmp (7) (-1)</text>
<polyline fill="none" stroke="black" points="51.29,-570.35 153.22,-570.35" style=""/>
<text text-anchor="middle" x="102.25" y="-553.75" font-family="Times,serif" font-size="14.00" style="">3: bge (2) (18)</text>
<polyline fill="none" stroke="black" points="153.22,-545.55 153.22,-644.75" style=""/>
<text text-anchor="middle" x="230.8" y="-591.15" font-family="Times,serif" font-size="14.00" style="">'a': 14, 'b': 16, 'c': 1, 'd': 1</text>
</g>
<!-- bb1&#45;&gt;bb2 -->
<g id="edge2" class="edge" data-name="bb1-&gt;bb2">

<path fill="none" stroke="black" d="M159,-698.05C159,-678.8 159,-671.4 159,-656.4" style=""/>
<polygon fill="black" stroke="black" points="162.5,-656.77 159,-646.77 155.5,-656.77 162.5,-656.77" style=""/>
<text text-anchor="middle" x="192.43" y="-667.45" font-family="Times,serif" font-size="14.00" style="">fall-through</text>
</g>
<!-- bb3 -->
<g id="node4" class="node" pointer-events="visible" data-name="bb3">

<polygon fill="none" stroke="black" points="308.68,-442.15 308.68,-491.75 611.32,-491.75 611.32,-442.15 308.68,-442.15" style=""/>
<text text-anchor="middle" x="329.52" y="-462.75" font-family="Times,serif" font-size="14.00" style="">BB3</text>
<polyline fill="none" stroke="black" points="350.35,-442.15 350.35,-491.75" style=""/>
<text text-anchor="middle" x="410.25" y="-475.15" font-family="Times,serif" font-size="14.00" style="">4: cmp (7) (-2)</text>
<polyline fill="none" stroke="black" points="350.35,-466.95 470.16,-466.95" style=""/>
<text text-anchor="middle" x="410.25" y="-450.35" font-family="Times,serif" font-size="14.00" style="">5: bge (4) (follow)</text>
<polyline fill="none" stroke="black" points="470.16,-442.15 470.16,-491.75" style=""/>
<text text-anchor="middle" x="540.74" y="-463.15" font-family="Times,serif" font-size="14.00" style="">'a': 1, 'b': 1, 'c': 1, 'd': 1</text>
</g>
<!-- bb2&#45;&gt;bb3 -->
<g id="edge3" class="edge" data-name="bb2-&gt;bb3">

<path fill="none" stroke="black" d="M159,-545.05C159,-514.35 405.14,-523.76 452.26,-500.74" style=""/>
<polygon fill="black" stroke="black" points="454.83,-503.12 458.98,-493.37 449.65,-498.4 454.83,-503.12" style=""/>
<text text-anchor="middle" x="442.43" y="-514.45" font-family="Times,serif" font-size="14.00" style="">fall-through</text>
</g>
<!-- bb8 -->
<g id="node9" class="node" pointer-events="visible" data-name="bb8">

<polygon fill="none" stroke="black" points="27.5,-448.95 27.5,-484.95 290.5,-484.95 290.5,-448.95 27.5,-448.95" style=""/>
<text text-anchor="middle" x="48.34" y="-462.75" font-family="Times,serif" font-size="14.00" style="">BB8</text>
<polyline fill="none" stroke="black" points="69.18,-448.95 69.18,-484.95" style=""/>
<text text-anchor="middle" x="102.25" y="-462.85" font-family="Times,serif" font-size="14.00" style="">18: write</text>
<polyline fill="none" stroke="black" points="135.33,-448.95 135.33,-484.95" style=""/>
<text text-anchor="middle" x="212.92" y="-462.85" font-family="Times,serif" font-size="14.00" style="">'a': 14, 'b': 16, 'c': 1, 'd': 1</text>
</g>
<!-- bb2&#45;&gt;bb8 -->
<g id="edge4" class="edge" data-name="bb2-&gt;bb8">

<path fill="none" stroke="black" d="M159,-545.05C159,-523.09 159,-514.9 159,-497.46" style=""/>
<polygon fill="black" stroke="black" points="162.5,-497.47 159,-487.47 155.5,-497.47 162.5,-497.47" style=""/>
<text text-anchor="middle" x="178.04" y="-514.45" font-family="Times,serif" font-size="14.00" style="">branch</text>
</g>
<!-- bb4 -->
<g id="node5" class="node" pointer-events="visible" data-name="bb4">

<polygon fill="none" stroke="black" points="267.68,-313.95 267.68,-388.35 570.32,-388.35 570.32,-313.95 267.68,-313.95" style=""/>
<text text-anchor="middle" x="288.52" y="-346.95" font-family="Times,serif" font-size="14.00" style="">BB4</text>
<polyline fill="none" stroke="black" points="309.35,-313.95 309.35,-388.35" style=""/>
<text text-anchor="middle" x="369.25" y="-371.75" font-family="Times,serif" font-size="14.00" style="">6: add (7) (-3)</text>
<polyline fill="none" stroke="black" points="309.35,-363.55 429.16,-363.55" style=""/>
<text text-anchor="middle" x="369.25" y="-346.95" font-family="Times,serif" font-size="14.00" style="">8: cmp (11) (-2)</text>
<polyline fill="none" stroke="black" points="309.35,-338.75 429.16,-338.75" style=""/>
<text text-anchor="middle" x="369.25" y="-322.15" font-family="Times,serif" font-size="14.00" style="">9: bge (8) (follow)</text>
<polyline fill="none" stroke="black" points="429.16,-313.95 429.16,-388.35" style=""/>
<text text-anchor="middle" x="499.74" y="-347.25" font-family="Times,serif" font-size="14.00" style="">'a': 1, 'b': 6, 'c': 1, 'd': 1</text>
</g>
<!-- bb3&#45;&gt;bb4 -->
<g id="edge5" class="edge" data-name="bb3-&gt;bb4">

<path fill="none" stroke="black" d="M460,-441.65C460,-416.35 430.27,-417.4 421.44,-399.92" style=""/>
<polygon fill="black" stroke="black" points="424.9,-399.34 419.33,-390.33 418.06,-400.85 424.9,-399.34" style=""/>
<text text-anchor="middle" x="485.43" y="-411.05" font-family="Times,serif" font-size="14.00" style="">fall-through</text>
</g>
<!-- bb5 -->
<g id="node6" class="node" pointer-events="visible" data-name="bb5">

<polygon fill="none" stroke="black" points="269.62,-224.15 269.62,-260.15 568.38,-260.15 568.38,-224.15 269.62,-224.15" style=""/>
<text text-anchor="middle" x="290.46" y="-237.95" font-family="Times,serif" font-size="14.00" style="">BB5</text>
<polyline fill="none" stroke="black" points="311.3,-224.15 311.3,-260.15" style=""/>
<text text-anchor="middle" x="365.75" y="-238.05" font-family="Times,serif" font-size="14.00" style="">10: add (11) (-4)</text>
<polyline fill="none" stroke="black" points="420.21,-224.15 420.21,-260.15" style=""/>
<text text-anchor="middle" x="494.29" y="-238.05" font-family="Times,serif" font-size="14.00" style="">'a': 1, 'b': 6, 'c': 10, 'd': 1</text>
</g>
<!-- bb4&#45;&gt;bb5 -->
<g id="edge6" class="edge" data-name="bb4-&gt;bb5">

<path fill="none" stroke="black" d="M419,-313.45C419,-294.2 419,-286.8 419,-271.8" style=""/>
<polygon fill="black" stroke="black" points="422.5,-272.17 419,-262.17 415.5,-272.17 422.5,-272.17" style=""/>
<text text-anchor="middle" x="452.43" y="-282.85" font-family="Times,serif" font-size="14.00" style="">fall-through</text>
</g>
<!-- bb6 -->
<g id="node7" class="node" pointer-events="visible" data-name="bb6">

<polygon fill="none" stroke="black" points="101.88,-134.35 101.88,-170.35 350.12,-170.35 350.12,-134.35 101.88,-134.35" style=""/>
<text text-anchor="middle" x="122.72" y="-148.15" font-family="Times,serif" font-size="14.00" style="">BB6</text>
<polyline fill="none" stroke="black" points="143.56,-134.35 143.56,-170.35" style=""/>
<text text-anchor="middle" x="172.75" y="-148.25" font-family="Times,serif" font-size="14.00" style="">12: nop</text>
<polyline fill="none" stroke="black" points="201.95,-134.35 201.95,-170.35" style=""/>
<text text-anchor="middle" x="276.03" y="-148.25" font-family="Times,serif" font-size="14.00" style="">'a': 1, 'b': 6, 'c': 10, 'd': 1</text>
</g>
<!-- bb4&#45;&gt;bb6 -->
<g id="edge7" class="edge" data-name="bb4-&gt;bb6">

<path fill="none" stroke="black" d="M419,-313.45C419,-268.32 250.36,-296.47 222.91,-260.65 219.99,-256.85 223.94,-206.04 225.45,-182.01" style=""/>
<polygon fill="black" stroke="black" points="228.93,-182.52 225.93,-172.36 221.94,-182.18 228.93,-182.52" style=""/>
<text text-anchor="middle" x="241.04" y="-237.95" font-family="Times,serif" font-size="14.00" style="">branch</text>
</g>
<!-- bb5&#45;&gt;bb6 -->
<g id="edge8" class="edge" data-name="bb5-&gt;bb6">

<path fill="none" stroke="black" d="M419,-223.65C419,-202.85 347.22,-211.05 327.13,-205.65 285.35,-194.43 235.85,-214.18 227.29,-181.99" style=""/>
<polygon fill="black" stroke="black" points="230.8,-181.89 226.17,-172.36 223.85,-182.69 230.8,-181.89" style=""/>
<text text-anchor="middle" x="360.43" y="-193.05" font-family="Times,serif" font-size="14.00" style="">fall-through</text>
</g>
<!-- bb7 -->
<g id="node8" class="node" pointer-events="visible" data-name="bb7">

<polygon fill="none" stroke="black" points="69.62,-6.15 69.62,-80.55 382.38,-80.55 382.38,-6.15 69.62,-6.15" style=""/>
<text text-anchor="middle" x="90.46" y="-39.15" font-family="Times,serif" font-size="14.00" style="">BB7</text>
<polyline fill="none" stroke="black" points="111.3,-6.15 111.3,-80.55" style=""/>
<text text-anchor="middle" x="165.75" y="-63.95" font-family="Times,serif" font-size="14.00" style="">13: add (14) (-5)</text>
<polyline fill="none" stroke="black" points="111.3,-55.75 220.21,-55.75" style=""/>
<text text-anchor="middle" x="165.75" y="-39.15" font-family="Times,serif" font-size="14.00" style="">15: add (16) (-5)</text>
<polyline fill="none" stroke="black" points="111.3,-30.95 220.21,-30.95" style=""/>
<text text-anchor="middle" x="165.75" y="-14.35" font-family="Times,serif" font-size="14.00" style="">17: bra (14)</text>
<polyline fill="none" stroke="black" points="220.21,-6.15 220.21,-80.55" style=""/>
<text text-anchor="middle" x="301.29" y="-39.45" font-family="Times,serif" font-size="14.00" style="">'a': 13, 'b': 15, 'c': 10, 'd': 1</text>
</g>
<!-- bb5&#45;&gt;bb7 -->
<g id="edge9" class="edge" data-name="bb5-&gt;bb7">

<path fill="none" stroke="black" d="M419,-223.65C419,-146.15 368.98,-127.79 297,-99.05 271.25,-88.77 237.87,-106.55 228.53,-91.96" style=""/>
<polygon fill="black" stroke="black" points="232.01,-91.48 226.34,-82.53 225.19,-93.06 232.01,-91.48" style=""/>
<text text-anchor="middle" x="426.04" y="-148.15" font-family="Times,serif" font-size="14.00" style="">branch</text>
</g>
<!-- bb6&#45;&gt;bb7 -->
<g id="edge10" class="edge" data-name="bb6-&gt;bb7">

<path fill="none" stroke="black" d="M226,-133.85C226,-114.6 226,-107.2 226,-92.2" style=""/>
<polygon fill="black" stroke="black" points="229.5,-92.57 226,-82.57 222.5,-92.57 229.5,-92.57" style=""/>
<text text-anchor="middle" x="259.43" y="-103.25" font-family="Times,serif" font-size="14.00" style="">fall-through</text>
</g>
<!-- bb7&#45;&gt;bb2 -->
<g id="edge11" class="edge" data-name="bb7-&gt;bb2">

<path fill="none" stroke="black" d="M226,-5.35C226,3.34 376.25,-0.19 382.38,-6.35 405.78,-29.9 404.51,-56.3 382.38,-81.05 358.47,-107.79 257.34,-92.93 222,-99.05 122.12,-116.36 0,-49.98 0,-151.35 0,-467.95 0,-467.95 0,-467.95 0,-481.66 7.52,-484.75 19,-492.25 71.23,-526.38 93.66,-515.66 155,-527.05 188.74,-533.32 285.58,-519.41 308.38,-545.05 337.95,-578.29 339.74,-613.59 308.38,-645.15 303.52,-650.05 203.33,-653.24 169.82,-649.39" style=""/>
<polygon fill="black" stroke="black" points="171.03,-646.1 160.45,-646.59 169.03,-652.8 171.03,-646.1" style=""/>
<text text-anchor="middle" x="19.04" y="-282.85" font-family="Times,serif" font-size="14.00" style="">branch</text>
</g>
</g>
</svg>