<?xml version="1.0" standalone="no"?>
<svg xmlns="http://www.w3.org/2000/svg" xmlns:xlink="http://www.w3.org/1999/xlink" width="741pt" height="1092pt" viewBox="0.00 0.00 740.67 1092.32">
<g id="graph0" class="graph" transform="translate(-33.60295548927877,1233.1168462160679) scale(1.3379275547861142)" data-name="G">

<polygon fill="white" stroke="none" points="-4,4 -4,-1088.32 736.67,-1088.32 736.67,4 -4,4" style=""/>
<!-- bb0 -->
<g id="node1" class="node" pointer-events="visible" data-name="bb0">

<polygon fill="none" stroke="black" points="371.83,-1009.42 371.83,-1083.82 541.93,-1083.82 541.93,-1009.42 371.83,-1009.42" style=""/>
<text text-anchor="middle" x="392.66" y="-1042.42" font-family="Times,serif" font-size="14.00" style="">BB0</text>
<polyline fill="none" stroke="black" points="413.5,-1009.42 413.5,-1083.82" style=""/>
<text text-anchor="middle" x="467.97" y="-1067.22" font-family="Times,serif" font-size="14.00" style="">-1: const # (100)</text>
<polyline fill="none" stroke="black" points="413.5,-1059.02 522.43,-1059.02" style=""/>
<text text-anchor="middle" x="467.97" y="-1042.42" font-family="Times,serif" font-size="14.00" style="">-2: const # (0)</text>
<polyline fill="none" stroke="black" points="413.5,-1034.22 522.43,-1034.22" style=""/>
<text text-anchor="middle" x="467.97" y="-1017.62" font-family="Times,serif" font-size="14.00" style="">-3: const # (1)</text>
<polyline fill="none" stroke="black" points="522.43,-1009.42 522.43,-1083.82" style=""/>
<text text-anchor="middle" x="532.18" y="-1042.72" font-family="Times,serif" font-size="14.00" style=""> </text>
</g>
<!-- bb1 -->
<g id="node2" class="node" pointer-events="visible" data-name="bb1">

<polygon fill="none" stroke="black" points="338.22,-881.22 338.22,-955.62 575.54,-955.62 575.54,-881.22 338.22,-881.22" style=""/>
<text text-anchor="middle" x="359.06" y="-914.22" font-family="Times,serif" font-size="14.00" style="">BB1</text>
<polyline fill="none" stroke="black" points="379.89,-881.22 379.89,-955.62" style=""/>
<text text-anchor="middle" x="407.13" y="-939.02" font-family="Times,serif" font-size="14.00" style="">1: read</text>
<polyline fill="none" stroke="black" points="379.89,-930.82 434.37,-930.82" style=""/>
<text text-anchor="middle" x="407.13" y="-914.22" font-family="Times,serif" font-size="14.00" style="">2: read</text>
<polyline fill="none" stroke="black" points="379.89,-906.02 434.37,-906.02" style=""/>
<text text-anchor="middle" x="407.13" y="-889.42" font-family="Times,serif" font-size="14.00" style="">3: read</text>
<polyline fill="none" stroke="black" points="434.37,-881.22 434.37,-955.62" style=""/>
<text text-anchor="middle" x="504.96" y="-914.52" font-family="Times,serif" font-size="14.00" style="">'a': 1, 'b': 2, 'c': 3, 'd': 2</text>
</g>
<!-- bb0&#45;&gt;bb1 -->
<g id="edge1" class="edge" data-name="bb0-&gt;bb1">

<path fill="none" stroke="black" d="M456.88,-1008.92C456.88,-989.67 456.88,-982.27 456.88,-967.27" style=""/>
<polygon fill="black" stroke="black" points="460.38,-967.64 456.88,-957.64 453.38,-967.64 460.38,-967.64" style=""/>
<text text-anchor="middle" x="490.31" y="-978.32" font-family="Times,serif" font-size="14.00" style="">fall-through</text>
</g>
<!-- bb2 -->
<g id="node3" class="node" pointer-events="visible" data-name="bb2">

<polygon fill="none" stroke="black" points="300.49,-678.62 300.49,-827.42 613.26,-827.42 613.26,-678.62 300.49,-678.62" style=""/>
<text text-anchor="middle" x="321.33" y="-748.82" font-family="Times,serif" font-size="14.00" style="">BB2</text>
<polyline fill="none" stroke="black" points="342.17,-678.62 342.17,-827.42" style=""/>
<text text-anchor="middle" x="393.13" y="-810.82" font-family="Times,serif" font-size="14.00" style="">10: phi (9) (2)</text>
<polyline fill="none" stroke="black" points="342.17,-802.62 444.1,-802.62" style=""/>
<text text-anchor="middle" x="393.13" y="-786.02" font-family="Times,serif" font-size="14.00" style="">16: phi (15) (3)</text>
<polyline fill="none" stroke="black" points="342.17,-777.82 444.1,-777.82" style=""/>
<text text-anchor="middle" x="393.13" y="-761.22" font-family="Times,serif" font-size="14.00" style="">19: phi (18) (1)</text>
<polyline fill="none" stroke="black" points="342.17,-753.02 444.1,-753.02" style=""/>
<text text-anchor="middle" x="393.13" y="-736.42" font-family="Times,serif" font-size="14.00" style="">22: phi (21) (2)</text>
<polyline fill="none" stroke="black" points="342.17,-728.22 444.1,-728.22" style=""/>
<text text-anchor="middle" x="393.13" y="-711.62" font-family="Times,serif" font-size="14.00" style="">4: cmp (1) (-1)</text>
<polyline fill="none" stroke="black" points="342.17,-703.42 444.1,-703.42" style=""/>
<text text-anchor="middle" x="393.13" y="-686.82" font-family="Times,serif" font-size="14.00" style="">5: bge (4) (24)</text>
<polyline fill="none" stroke="black" points="444.1,-678.62 444.1,-827.42" style=""/>
<text text-anchor="middle" x="528.68" y="-748.82" font-family="Times,serif" font-size="14.00" style="">'a': 19, 'b': 10, 'c': 16, 'd': 22</text>
</g>
<!-- bb1&#45;&gt;bb2 -->
<g id="edge2" class="edge" data-name="bb1-&gt;bb2">

<path fill="none" stroke="black" d="M456.88,-880.72C456.88,-861.47 456.88,-854.07 456.88,-839.07" style=""/>
<polygon fill="black" stroke="black" points="460.38,-839.44 456.88,-829.44 453.38,-839.44 460.38,-839.44" style=""/>
<text text-anchor="middle" x="490.31" y="-850.12" font-family="Times,serif" font-size="14.00" style="">fall-through</text>
</g>
<!-- bb3 -->
<g id="node4" class="node" pointer-events="visible" data-name="bb3">

<polygon fill="none" stroke="black" points="15.06,-562.82 15.06,-612.42 296.7,-612.42 296.7,-562.82 15.06,-562.82" style=""/>
<text text-anchor="middle" x="35.89" y="-583.42" font-family="Times,serif" font-size="14.00" style="">BB3</text>
<polyline fill="none" stroke="black" points="56.73,-562.82 56.73,-612.42" style=""/>
<text text-anchor="middle" x="106.13" y="-595.82" font-family="Times,serif" font-size="14.00" style="">6: cmp (2) (-2)</text>
<polyline fill="none" stroke="black" points="56.73,-587.62 155.53,-587.62" style=""/>
<text text-anchor="middle" x="106.13" y="-571.02" font-family="Times,serif" font-size="14.00" style="">7: bge (6) (9)</text>
<polyline fill="none" stroke="black" points="155.53,-562.82 155.53,-612.42" style=""/>
<text text-anchor="middle" x="226.12" y="-583.82" font-family="Times,serif" font-size="14.00" style="">'a': 1, 'b': 2, 'c': 3, 'd': 2</text>
</g>
<!-- bb2&#45;&gt;bb3 -->
<g id="edge3" class="edge" data-name="bb2-&gt;bb3">

<path fill="none" stroke="black" d="M456.88,-678.12C456.88,-670.53 219.17,-632.25 166.24,-617.82" style=""/>
<polygon fill="black" stroke="black" points="167.86,-614.7 157.28,-614.19 165.24,-621.19 167.86,-614.7" style=""/>
<text text-anchor="middle" x="410.31" y="-647.52" font-family="Times,serif" font-size="14.00" style="">fall-through</text>
</g>
<!-- bb10 -->
<g id="node11" class="node" pointer-events="visible" data-name="bb10">

<polygon fill="none" stroke="black" points="314.88,-550.42 314.88,-624.82 598.88,-624.82 598.88,-550.42 314.88,-550.42" style=""/>
<text text-anchor="middle" x="339.22" y="-583.42" font-family="Times,serif" font-size="14.00" style="">BB10</text>
<polyline fill="none" stroke="black" points="363.56,-550.42 363.56,-624.82" style=""/>
<text text-anchor="middle" x="396.63" y="-608.22" font-family="Times,serif" font-size="14.00" style="">24: write</text>
<polyline fill="none" stroke="black" points="363.56,-600.02 429.71,-600.02" style=""/>
<text text-anchor="middle" x="396.63" y="-583.42" font-family="Times,serif" font-size="14.00" style="">25: write</text>
<polyline fill="none" stroke="black" points="363.56,-575.22 429.71,-575.22" style=""/>
<text text-anchor="middle" x="396.63" y="-558.62" font-family="Times,serif" font-size="14.00" style="">26: write</text>
<polyline fill="none" stroke="black" points="429.71,-550.42 429.71,-624.82" style=""/>
<text text-anchor="middle" x="514.29" y="-583.72" font-family="Times,serif" font-size="14.00" style="">'a': 19, 'b': 10, 'c': 16, 'd': 22</text>
</g>
<!-- bb2&#45;&gt;bb10 -->
<g id="edge4" class="edge" data-name="bb2-&gt;bb10">

<path fill="none" stroke="black" d="M456.88,-678.12C456.88,-658.87 456.88,-651.47 456.88,-636.47" style=""/>
<polygon fill="black" stroke="black" points="460.38,-636.84 456.88,-626.84 453.38,-636.84 460.38,-636.84" style=""/>
<text text-anchor="middle" x="475.92" y="-647.52" font-family="Times,serif" font-size="14.00" style="">branch</text>
</g>
<!-- bb4 -->
<g id="node5" class="node" pointer-events="visible" data-name="bb4">

<polygon fill="none" stroke="black" points="8.83,-422.22 8.83,-496.62 302.92,-496.62 302.92,-422.22 8.83,-422.22" style=""/>
<text text-anchor="middle" x="29.67" y="-455.22" font-family="Times,serif" font-size="14.00" style="">BB4</text>
<polyline fill="none" stroke="black" points="50.51,-422.22 50.51,-496.62" style=""/>
<text text-anchor="middle" x="106.13" y="-480.02" font-family="Times,serif" font-size="14.00" style="">8: add (2) (-3)</text>
<polyline fill="none" stroke="black" points="50.51,-471.82 161.76,-471.82" style=""/>
<text text-anchor="middle" x="106.13" y="-455.22" font-family="Times,serif" font-size="14.00" style="">11: cmp (3) (-2)</text>
<polyline fill="none" stroke="black" points="50.51,-447.02 161.76,-447.02" style=""/>
<text text-anchor="middle" x="106.13" y="-430.42" font-family="Times,serif" font-size="14.00" style="">12: bge (11) (14)</text>
<polyline fill="none" stroke="black" points="161.76,-422.22 161.76,-496.62" style=""/>
<text text-anchor="middle" x="232.34" y="-455.52" font-family="Times,serif" font-size="14.00" style="">'a': 1, 'b': 8, 'c': 3, 'd': 2</text>
</g>
<!-- bb3&#45;&gt;bb4 -->
<g id="edge5" class="edge" data-name="bb3-&gt;bb4">

<path fill="none" stroke="black" d="M155.88,-561.62C155.88,-537.21 155.88,-528.39 155.88,-508.61" style=""/>
<polygon fill="black" stroke="black" points="159.38,-508.64 155.88,-498.64 152.38,-508.64 159.38,-508.64" style=""/>
<text text-anchor="middle" x="189.31" y="-519.32" font-family="Times,serif" font-size="14.00" style="">fall-through</text>
</g>
<!-- bb8 -->
<g id="node9" class="node" pointer-events="visible" data-name="bb8">

<polygon fill="none" stroke="black" points="372.71,-367.22 372.71,-403.22 575.05,-403.22 575.05,-367.22 372.71,-367.22" style=""/>
<text text-anchor="middle" x="393.54" y="-381.02" font-family="Times,serif" font-size="14.00" style="">BB8</text>
<polyline fill="none" stroke="black" points="414.38,-367.22 414.38,-403.22" style=""/>
<text text-anchor="middle" x="424.13" y="-381.12" font-family="Times,serif" font-size="14.00" style=""> </text>
<polyline fill="none" stroke="black" points="433.88,-367.22 433.88,-403.22" style=""/>
<text text-anchor="middle" x="504.47" y="-381.12" font-family="Times,serif" font-size="14.00" style="">'a': 1, 'b': 2, 'c': 3, 'd': 2</text>
</g>
<!-- bb3&#45;&gt;bb8 -->
<g id="edge6" class="edge" data-name="bb3-&gt;bb8">

<path fill="none" stroke="black" d="M155.88,-561.62C155.88,-561.04 311.35,-497.38 311.88,-497.12 382.8,-462.2 465.37,-484.4 473.26,-415.13" style=""/>
<polygon fill="black" stroke="black" points="476.75,-415.41 473.8,-405.24 469.76,-415.03 476.75,-415.41" style=""/>
<text text-anchor="middle" x="285.92" y="-519.32" font-family="Times,serif" font-size="14.00" style="">branch</text>
</g>
<!-- bb5 -->
<g id="node6" class="node" pointer-events="visible" data-name="bb5">

<polygon fill="none" stroke="black" points="0,-312.22 0,-348.22 291.76,-348.22 291.76,-312.22 0,-312.22" style=""/>
<text text-anchor="middle" x="20.84" y="-326.02" font-family="Times,serif" font-size="14.00" style="">BB5</text>
<polyline fill="none" stroke="black" points="41.68,-312.22 41.68,-348.22" style=""/>
<text text-anchor="middle" x="92.63" y="-326.12" font-family="Times,serif" font-size="14.00" style="">13: add (3) (-3)</text>
<polyline fill="none" stroke="black" points="143.59,-312.22 143.59,-348.22" style=""/>
<text text-anchor="middle" x="217.67" y="-326.12" font-family="Times,serif" font-size="14.00" style="">'a': 1, 'b': 8, 'c': 13, 'd': 2</text>
</g>
<!-- bb4&#45;&gt;bb5 -->
<g id="edge7" class="edge" data-name="bb4-&gt;bb5">

<path fill="none" stroke="black" d="M155.88,-421.72C155.88,-393.07 148.22,-383.74 146.31,-359.92" style=""/>
<polygon fill="black" stroke="black" points="149.82,-360.09 145.94,-350.24 142.82,-360.36 149.82,-360.09" style=""/>
<text text-anchor="middle" x="188.31" y="-381.02" font-family="Times,serif" font-size="14.00" style="">fall-through</text>
</g>
<!-- bb6 -->
<g id="node7" class="node" pointer-events="visible" data-name="bb6">

<polygon fill="none" stroke="black" points="309.71,-312.22 309.71,-348.22 512.05,-348.22 512.05,-312.22 309.71,-312.22" style=""/>
<text text-anchor="middle" x="330.54" y="-326.02" font-family="Times,serif" font-size="14.00" style="">BB6</text>
<polyline fill="none" stroke="black" points="351.38,-312.22 351.38,-348.22" style=""/>
<text text-anchor="middle" x="361.13" y="-326.12" font-family="Times,serif" font-size="14.00" style=""> </text>
<polyline fill="none" stroke="black" points="370.88,-312.22 370.88,-348.22" style=""/>
<text text-anchor="middle" x="441.47" y="-326.12" font-family="Times,serif" font-size="14.00" style="">'a': 1, 'b': 8, 'c': 3, 'd': 2</text>
</g>
<!-- bb4&#45;&gt;bb6 -->
<g id="edge8" class="edge" data-name="bb4-&gt;bb6">

<path fill="none" stroke="black" d="M155.88,-421.72C155.88,-389.6 195.22,-413.31 225.88,-403.72 271.07,-389.59 280.3,-379.88 325.79,-366.72 340.58,-362.44 385.83,-365.83 403.6,-357.6" style=""/>
<polygon fill="black" stroke="black" points="406.29,-359.85 409.92,-349.89 400.87,-355.41 406.29,-359.85" style=""/>
<text text-anchor="middle" x="344.92" y="-381.02" font-family="Times,serif" font-size="14.00" style="">branch</text>
</g>
<!-- bb7 -->
<g id="node8" class="node" pointer-events="visible" data-name="bb7">

<polygon fill="none" stroke="black" points="222.99,-184.02 222.99,-258.42 528.76,-258.42 528.76,-184.02 222.99,-184.02" style=""/>
<text text-anchor="middle" x="243.83" y="-217.02" font-family="Times,serif" font-size="14.00" style="">BB7</text>
<polyline fill="none" stroke="black" points="264.67,-184.02 264.67,-258.42" style=""/>
<text text-anchor="middle" x="315.63" y="-241.82" font-family="Times,serif" font-size="14.00" style="">14: phi (13) (3)</text>
<polyline fill="none" stroke="black" points="264.67,-233.62 366.6,-233.62" style=""/>
<text text-anchor="middle" x="315.63" y="-217.02" font-family="Times,serif" font-size="14.00" style="">17: add (1) (-3)</text>
<polyline fill="none" stroke="black" points="264.67,-208.82 366.6,-208.82" style=""/>
<text text-anchor="middle" x="315.63" y="-192.22" font-family="Times,serif" font-size="14.00" style="">20: add (8) (-3)</text>
<polyline fill="none" stroke="black" points="366.6,-184.02 366.6,-258.42" style=""/>
<text text-anchor="middle" x="447.68" y="-217.32" font-family="Times,serif" font-size="14.00" style="">'a': 17, 'b': 8, 'c': 14, 'd': 20</text>
</g>
<!-- bb5&#45;&gt;bb7 -->
<g id="edge9" class="edge" data-name="bb5-&gt;bb7">

<path fill="none" stroke="black" d="M145.88,-311.72C145.88,-300.25 321.97,-278.47 366,-264.42" style=""/>
<polygon fill="black" stroke="black" points="367.52,-267.58 374.56,-259.66 364.11,-261.46 367.52,-267.58" style=""/>
<text text-anchor="middle" x="342.31" y="-281.12" font-family="Times,serif" font-size="14.00" style="">fall-through</text>
</g>
<!-- bb6&#45;&gt;bb7 -->
<g id="edge10" class="edge" data-name="bb6-&gt;bb7">

<path fill="none" stroke="black" d="M410.88,-311.72C410.88,-287.97 385.96,-286.75 378.17,-270.04" style=""/>
<polygon fill="black" stroke="black" points="381.63,-269.49 376.18,-260.41 374.78,-270.91 381.63,-269.49" style=""/>
<text text-anchor="middle" x="422.92" y="-281.12" font-family="Times,serif" font-size="14.00" style="">branch</text>
</g>
<!-- bb9 -->
<g id="node10" class="node" pointer-events="visible" data-name="bb9">

<polygon fill="none" stroke="black" points="403.99,-6.22 403.99,-130.22 709.76,-130.22 709.76,-6.22 403.99,-6.22" style=""/>
<text text-anchor="middle" x="424.83" y="-64.02" font-family="Times,serif" font-size="14.00" style="">BB9</text>
<polyline fill="none" stroke="black" points="445.67,-6.22 445.67,-130.22" style=""/>
<text text-anchor="middle" x="496.63" y="-113.62" font-family="Times,serif" font-size="14.00" style="">9: phi (8) (2)</text>
<polyline fill="none" stroke="black" points="445.67,-105.42 547.6,-105.42" style=""/>
<text text-anchor="middle" x="496.63" y="-88.82" font-family="Times,serif" font-size="14.00" style="">15: phi (14) (3)</text>
<polyline fill="none" stroke="black" points="445.67,-80.62 547.6,-80.62" style=""/>
<text text-anchor="middle" x="496.63" y="-64.02" font-family="Times,serif" font-size="14.00" style="">18: phi (17) (1)</text>
<polyline fill="none" stroke="black" points="445.67,-55.82 547.6,-55.82" style=""/>
<text text-anchor="middle" x="496.63" y="-39.22" font-family="Times,serif" font-size="14.00" style="">21: phi (20) (2)</text>
<polyline fill="none" stroke="black" points="445.67,-31.02 547.6,-31.02" style=""/>
<text text-anchor="middle" x="496.63" y="-14.42" font-family="Times,serif" font-size="14.00" style="">23: bra (10)</text>
<polyline fill="none" stroke="black" points="547.6,-6.22 547.6,-130.22" style=""/>
<text text-anchor="middle" x="628.68" y="-64.12" font-family="Times,serif" font-size="14.00" style="">'a': 18, 'b': 9, 'c': 15, 'd': 21</text>
</g>
<!-- bb7&#45;&gt;bb9 -->
<g id="edge11" class="edge" data-name="bb7-&gt;bb9">

<path fill="none" stroke="black" d="M375.88,-183.52C375.88,-136.41 430.69,-161.6 476.01,-148.72 489.98,-144.75 532.25,-147.31 549.47,-139.51" style=""/>
<polygon fill="black" stroke="black" points="552.13,-141.78 555.9,-131.88 546.78,-137.27 552.13,-141.78" style=""/>
<text text-anchor="middle" x="509.31" y="-152.92" font-family="Times,serif" font-size="14.00" style="">fall-through</text>
</g>
<!-- bb8&#45;&gt;bb9 -->
<g id="edge12" class="edge" data-name="bb8-&gt;bb9">

<path fill="none" stroke="black" d="M473.88,-366.72C473.88,-344.36 506.54,-365.89 520.88,-348.72 531,-336.61 551.82,-187.51 556.1,-142.08" style=""/>
<polygon fill="black" stroke="black" points="559.58,-142.45 556.77,-132.23 552.6,-141.97 559.58,-142.45" style=""/>
<text text-anchor="middle" x="555.92" y="-281.12" font-family="Times,serif" font-size="14.00" style="">branch</text>
</g>
<!-- bb9&#45;&gt;bb2 -->
<g id="edge13" class="edge" data-name="bb9-&gt;bb2">

<path fill="none" stroke="black" d="M556.88,-5.22C556.88,3.27 703.78,-0.2 709.76,-6.22 748.76,-45.48 729.95,-79.21 709.76,-130.72 689.98,-181.2 626.88,-166.01 626.88,-220.22 626.88,-588.62 626.88,-588.62 626.88,-588.62 626.88,-694.75 690.18,-753.9 613.26,-827.02 608,-832.03 502.26,-835.44 467.7,-831.34" style=""/>
<polygon fill="black" stroke="black" points="468.91,-828.06 458.32,-828.47 466.86,-834.75 468.91,-828.06" style=""/>
<text text-anchor="middle" x="645.92" y="-381.02" font-family="Times,serif" font-size="14.00" style="">branch</text>
</g>
</g>
</svg>